# xmcd CD database file
#
# Track frame offsets:
#	150
#	36748
#	81503
#	115668
#	172125
#
# Disc length: 2641 seconds
#
# Revision: 3
# Processed by: cddbd v1.5.1PL0 Copyright (c) Steve Scherf et al.
# Submitted via: CDex 1.51
#
DISCID=440a4f05
DTITLE=Jimmy Smith - Back at the Chicken Shack
DYEAR=1960
DGENRE=Jazz
TTITLE0=Back at the Chicken Shack
TTITLE1=When I Grow Too Old to Dream
TTITLE2=Minor Chant
TTITLE3=Messy Bessie
TTITLE4=On the Sunny Side of the Street
EXTD=YEAR: 1960
EXTT0=
EXTT1=
EXTT2=
EXTT3=
EXTT4=
PLAYORDER=
